<svg width="24" height="24" viewBox="0 0 24 24" fill="none" xmlns="http://www.w3.org/2000/svg">
<path d="M20 11C21.1046 11 22 11.8954 22 13V20C22 21.1046 21.1046 22 20 22H4C2.89543 22 2 21.1046 2 20V13C2 11.8954 2.89543 11 4 11H20ZM4 20H20V13H4V20ZM10 2C11.1046 2 12 2.89543 12 4V9C12 9.55228 11.5523 10 11 10C10.4477 10 10 9.55228 10 9V4H4V9C4 9.55228 3.55228 10 3 10C2.44772 10 2 9.55228 2 9V4C2 2.89543 2.89543 2 4 2H10ZM18 2C18.5515 2 18.9989 2.44655 19 2.99805L19.0059 6.22852L19.96 5.27539C20.3504 4.88523 20.9836 4.88523 21.374 5.27539C21.7645 5.66591 21.7645 6.29991 21.374 6.69043L18.7168 9.34668C18.3263 9.73711 17.6932 9.73717 17.3027 9.34668L14.6465 6.69043C14.256 6.29991 14.256 5.66592 14.6465 5.27539C15.037 4.88531 15.6701 4.88515 16.0605 5.27539L17.0059 6.2207L17.002 4H14.5C13.9477 4 13.5 3.55228 13.5 3C13.5 2.44772 13.9477 2 14.5 2H18Z" fill="#0A0A0A"/>
</svg>
